# xmcd CD Database Entry
#
# Track frame offsets:
# 150
# 13537
# 28450
# 43700
# 56825
# 73562
# 87250
# 103400
# 121337
# 135137
# 147962
# 163612
# 180787
# 197537
# 210525
# 225450
#
# Disc length: 3212 seconds
#
# Revision: 10
# Processed by: cddbd v1.4PL0 Copyright (c) Steve Scherf et al.
# Submitted via: tcd 2.0b
#
DISCID=d60c8a10
DTITLE=薩克斯風3
DYEAR=1900
DGENRE=
TTITLE0=第 1 音軌
TTITLE1=第 2 音軌
TTITLE2=第 3 音軌
TTITLE3=第 4 音軌
TTITLE4=第 5 音軌
TTITLE5=第 6 音軌
TTITLE6=第 7 音軌
TTITLE7=第 8 音軌
TTITLE8=第 9 音軌
TTITLE9=第 10 音軌
TTITLE10=第 11 音軌
TTITLE11=第 12 音軌
TTITLE12=第 13 音軌
TTITLE13=第 14 音軌
TTITLE14=第 15 音軌
TTITLE15=第 16 音軌
EXTD=
EXTT0=
EXTT1=
EXTT2=
EXTT3=
EXTT4=
EXTT5=
EXTT6=
EXTT7=
EXTT8=9
EXTT9=
EXTT10=
EXTT11=
EXTT12=
EXTT13=
EXTT14=
EXTT15=
PLAYORDER=
